<?xml version="1.0" encoding="utf-8"?>
<!-- Generator: Adobe Illustrator 24.0.1, SVG Export Plug-In . SVG Version: 6.00 Build 0)  -->
<svg version="1.1" id="Layer_1" xmlns="http://www.w3.org/2000/svg" xmlns:xlink="http://www.w3.org/1999/xlink" x="0px" y="0px"
	 viewBox="0 0 1920 1080" style="enable-background:new 0 0 1920 1080;" xml:space="preserve">
<style type="text/css">
	.st0{font-family:'Poppins-Medium';}
	.st1{font-size:205.8378px;}
</style>
<text transform="matrix(1 0 0 1 548.269 438.895)" class="st0 st1">Rentie</text>
<path d="M565.49,295.78h-83.54c-1.67,0-3.02,1.35-3.02,3.02v137.08c0,1.67,1.35,3.02,3.02,3.02h83.54c1.67,0,3.02-1.35,3.02-3.02
	V298.8C568.5,297.13,567.15,295.78,565.49,295.78z M505.16,318.45c0-0.43,0.35-0.78,0.78-0.78h8.29c0.43,0,0.78,0.35,0.78,0.78v8.29
	c0,0.43-0.35,0.78-0.78,0.78h-8.29c-0.43,0-0.78-0.35-0.78-0.78V318.45z M505.16,338.93c0-0.43,0.35-0.78,0.78-0.78h8.29
	c0.43,0,0.78,0.35,0.78,0.78v8.29c0,0.43-0.35,0.78-0.78,0.78h-8.29c-0.43,0-0.78-0.35-0.78-0.78V338.93z M505.16,359.4
	c0-0.43,0.35-0.78,0.78-0.78h8.29c0.43,0,0.78,0.35,0.78,0.78v8.29c0,0.43-0.35,0.78-0.78,0.78h-8.29c-0.43,0-0.78-0.35-0.78-0.78
	V359.4z M505.16,388.16v-8.29c0-0.43,0.35-0.78,0.78-0.78h8.29c0.43,0,0.78,0.35,0.78,0.78v8.29c0,0.43-0.35,0.78-0.78,0.78h-8.29
	C505.51,388.94,505.16,388.59,505.16,388.16z M515.48,408.64c0,0.43-0.35,0.78-0.78,0.78h-8.29c-0.43,0-0.78-0.35-0.78-0.78v-8.29
	c0-0.43,0.35-0.78,0.78-0.78h8.29c0.43,0,0.78,0.35,0.78,0.78V408.64z M549.26,388.16v-8.29c0-0.43,0.35-0.78,0.78-0.78h8.29
	c0.43,0,0.78,0.35,0.78,0.78v8.29c0,0.43-0.35,0.78-0.78,0.78h-8.29C549.61,388.94,549.26,388.59,549.26,388.16z M559.58,408.64
	c0,0.43-0.35,0.78-0.78,0.78h-8.29c-0.43,0-0.78-0.35-0.78-0.78v-8.29c0-0.43,0.35-0.78,0.78-0.78h8.29c0.43,0,0.78,0.35,0.78,0.78
	V408.64z M559.58,367.69c0,0.43-0.35,0.78-0.78,0.78h-8.29c-0.43,0-0.78-0.35-0.78-0.78v-8.29c0-0.43,0.35-0.78,0.78-0.78h8.29
	c0.43,0,0.78,0.35,0.78,0.78V367.69z M559.58,347.21c0,0.43-0.35,0.78-0.78,0.78h-8.29c-0.43,0-0.78-0.35-0.78-0.78v-8.29
	c0-0.43,0.35-0.78,0.78-0.78h8.29c0.43,0,0.78,0.35,0.78,0.78V347.21z M559.58,326.74c0,0.43-0.35,0.78-0.78,0.78h-8.29
	c-0.43,0-0.78-0.35-0.78-0.78v-8.29c0-0.43,0.35-0.78,0.78-0.78h8.29c0.43,0,0.78,0.35,0.78,0.78V326.74z"/>
</svg>
