<svg width="262" height="353" viewBox="0 0 262 353" fill="none" xmlns="http://www.w3.org/2000/svg">
<g filter="url(#filter0_d)">
<rect x="4" width="250" height="341" rx="5" fill="white"/>
</g>
<path d="M96.98 39C96.8467 39 96.7267 38.9533 96.62 38.86C96.5267 38.7533 96.48 38.6333 96.48 38.5V28.14H92.92C92.7867 28.14 92.6667 28.0933 92.56 28C92.4667 27.8933 92.42 27.7733 92.42 27.64V25.5C92.42 25.3533 92.4667 25.2333 92.56 25.14C92.6667 25.0467 92.7867 25 92.92 25H103.68C103.827 25 103.947 25.0467 104.04 25.14C104.133 25.2333 104.18 25.3533 104.18 25.5V27.64C104.18 27.7867 104.133 27.9067 104.04 28C103.947 28.0933 103.827 28.14 103.68 28.14H100.12V38.5C100.12 38.6333 100.073 38.7533 99.98 38.86C99.8867 38.9533 99.7667 39 99.62 39H96.98ZM106.498 39C106.364 39 106.244 38.9533 106.138 38.86C106.044 38.7533 105.998 38.6333 105.998 38.5V25.5C105.998 25.3533 106.044 25.2333 106.138 25.14C106.244 25.0467 106.364 25 106.498 25H115.838C115.984 25 116.104 25.0467 116.198 25.14C116.291 25.2333 116.338 25.3533 116.338 25.5V27.38C116.338 27.5133 116.291 27.6333 116.198 27.74C116.104 27.8333 115.984 27.88 115.838 27.88H109.458V30.58H115.398C115.544 30.58 115.664 30.6333 115.758 30.74C115.851 30.8333 115.898 30.9533 115.898 31.1V32.84C115.898 32.9733 115.851 33.0933 115.758 33.2C115.664 33.2933 115.544 33.34 115.398 33.34H109.458V36.12H115.998C116.144 36.12 116.264 36.1667 116.358 36.26C116.451 36.3533 116.498 36.4733 116.498 36.62V38.5C116.498 38.6333 116.451 38.7533 116.358 38.86C116.264 38.9533 116.144 39 115.998 39H106.498ZM119.271 39C119.138 39 119.018 38.9533 118.911 38.86C118.818 38.7533 118.771 38.6333 118.771 38.5V25.5C118.771 25.3533 118.818 25.2333 118.911 25.14C119.018 25.0467 119.138 25 119.271 25H121.391C121.724 25 121.951 25.1267 122.071 25.38L126.951 33.06V25.5C126.951 25.3533 126.998 25.2333 127.091 25.14C127.198 25.0467 127.318 25 127.451 25H129.851C129.998 25 130.118 25.0467 130.211 25.14C130.304 25.2333 130.351 25.3533 130.351 25.5V38.48C130.351 38.6267 130.304 38.7533 130.211 38.86C130.118 38.9533 129.998 39 129.851 39H127.711C127.418 39 127.198 38.8733 127.051 38.62L122.171 31.22V38.5C122.171 38.6333 122.124 38.7533 122.031 38.86C121.938 38.9533 121.818 39 121.671 39H119.271ZM132.346 39C132.239 39 132.139 38.96 132.046 38.88C131.966 38.7867 131.926 38.6867 131.926 38.58C131.926 38.5 131.933 38.44 131.946 38.4L136.646 25.56C136.686 25.4 136.773 25.2667 136.906 25.16C137.039 25.0533 137.213 25 137.426 25H140.386C140.599 25 140.773 25.0533 140.906 25.16C141.039 25.2667 141.126 25.4 141.166 25.56L145.846 38.4L145.886 38.58C145.886 38.6867 145.839 38.7867 145.746 38.88C145.666 38.96 145.566 39 145.446 39H142.986C142.666 39 142.453 38.86 142.346 38.58L141.566 36.54H136.226L135.466 38.58C135.359 38.86 135.139 39 134.806 39H132.346ZM140.766 33.66L138.906 28.38L137.046 33.66H140.766ZM147.963 39C147.829 39 147.709 38.9533 147.603 38.86C147.509 38.7533 147.463 38.6333 147.463 38.5V25.5C147.463 25.3533 147.509 25.2333 147.603 25.14C147.709 25.0467 147.829 25 147.963 25H150.083C150.416 25 150.643 25.1267 150.763 25.38L155.643 33.06V25.5C155.643 25.3533 155.689 25.2333 155.783 25.14C155.889 25.0467 156.009 25 156.143 25H158.543C158.689 25 158.809 25.0467 158.903 25.14C158.996 25.2333 159.043 25.3533 159.043 25.5V38.48C159.043 38.6267 158.996 38.7533 158.903 38.86C158.809 38.9533 158.689 39 158.543 39H156.403C156.109 39 155.889 38.8733 155.743 38.62L150.863 31.22V38.5C150.863 38.6333 150.816 38.7533 150.723 38.86C150.629 38.9533 150.509 39 150.363 39H147.963ZM165.418 39C165.284 39 165.164 38.9533 165.058 38.86C164.964 38.7533 164.918 38.6333 164.918 38.5V28.14H161.358C161.224 28.14 161.104 28.0933 160.998 28C160.904 27.8933 160.858 27.7733 160.858 27.64V25.5C160.858 25.3533 160.904 25.2333 160.998 25.14C161.104 25.0467 161.224 25 161.358 25H172.118C172.264 25 172.384 25.0467 172.478 25.14C172.571 25.2333 172.618 25.3533 172.618 25.5V27.64C172.618 27.7867 172.571 27.9067 172.478 28C172.384 28.0933 172.264 28.14 172.118 28.14H168.558V38.5C168.558 38.6333 168.511 38.7533 168.418 38.86C168.324 38.9533 168.204 39 168.058 39H165.418Z" fill="black"/>
<path d="M38.665 91.2031L42.8486 101.645L47.0322 91.2031H49.2207V104H47.5332V99.0166L47.6914 93.6377L43.4902 104H42.1982L38.0059 93.6641L38.1729 99.0166V104H36.4854V91.2031H38.665ZM53.7119 104H52.0859V94.4902H53.7119V104ZM51.9541 91.9678C51.9541 91.7041 52.0332 91.4814 52.1914 91.2998C52.3555 91.1182 52.5957 91.0273 52.9121 91.0273C53.2285 91.0273 53.4688 91.1182 53.6328 91.2998C53.7969 91.4814 53.8789 91.7041 53.8789 91.9678C53.8789 92.2314 53.7969 92.4512 53.6328 92.627C53.4688 92.8027 53.2285 92.8906 52.9121 92.8906C52.5957 92.8906 52.3555 92.8027 52.1914 92.627C52.0332 92.4512 51.9541 92.2314 51.9541 91.9678ZM58.0889 104H56.4629V90.5H58.0889V104ZM62.4658 104H60.8398V90.5H62.4658V104ZM66.8428 104H65.2168V94.4902H66.8428V104ZM65.085 91.9678C65.085 91.7041 65.1641 91.4814 65.3223 91.2998C65.4863 91.1182 65.7266 91.0273 66.043 91.0273C66.3594 91.0273 66.5996 91.1182 66.7637 91.2998C66.9277 91.4814 67.0098 91.7041 67.0098 91.9678C67.0098 92.2314 66.9277 92.4512 66.7637 92.627C66.5996 92.8027 66.3594 92.8906 66.043 92.8906C65.7266 92.8906 65.4863 92.8027 65.3223 92.627C65.1641 92.4512 65.085 92.2314 65.085 91.9678ZM73.3994 104.176C72.1104 104.176 71.0615 103.754 70.2529 102.91C69.4443 102.061 69.04 100.927 69.04 99.5088V99.21C69.04 98.2666 69.2188 97.4258 69.5762 96.6875C69.9395 95.9434 70.4434 95.3633 71.0879 94.9473C71.7383 94.5254 72.4414 94.3145 73.1973 94.3145C74.4336 94.3145 75.3945 94.7217 76.0801 95.5361C76.7656 96.3506 77.1084 97.5166 77.1084 99.0342V99.7109H70.666C70.6895 100.648 70.9619 101.407 71.4834 101.987C72.0107 102.562 72.6787 102.849 73.4873 102.849C74.0615 102.849 74.5479 102.731 74.9463 102.497C75.3447 102.263 75.6934 101.952 75.9922 101.565L76.9854 102.339C76.1885 103.563 74.9932 104.176 73.3994 104.176ZM73.1973 95.6504C72.541 95.6504 71.9902 95.8906 71.5449 96.3711C71.0996 96.8457 70.8242 97.5137 70.7188 98.375H75.4824V98.252C75.4355 97.4258 75.2129 96.7871 74.8145 96.3359C74.416 95.8789 73.877 95.6504 73.1973 95.6504ZM87.4883 98.2959C86.041 97.8799 84.9863 97.3701 84.3242 96.7666C83.668 96.1572 83.3398 95.4072 83.3398 94.5166C83.3398 93.5088 83.7412 92.6768 84.5439 92.0205C85.3525 91.3584 86.4014 91.0273 87.6904 91.0273C88.5693 91.0273 89.3516 91.1973 90.0371 91.5371C90.7285 91.877 91.2617 92.3457 91.6367 92.9434C92.0176 93.541 92.208 94.1943 92.208 94.9033H90.5117C90.5117 94.1299 90.2656 93.5234 89.7734 93.084C89.2812 92.6387 88.5869 92.416 87.6904 92.416C86.8584 92.416 86.208 92.6006 85.7393 92.9697C85.2764 93.333 85.0449 93.8398 85.0449 94.4902C85.0449 95.0117 85.2646 95.4541 85.7041 95.8174C86.1494 96.1748 86.9023 96.5029 87.9629 96.8018C89.0293 97.1006 89.8613 97.4316 90.459 97.7949C91.0625 98.1523 91.5078 98.5713 91.7949 99.0518C92.0879 99.5322 92.2344 100.098 92.2344 100.748C92.2344 101.785 91.8301 102.617 91.0215 103.244C90.2129 103.865 89.1318 104.176 87.7783 104.176C86.8994 104.176 86.0791 104.009 85.3174 103.675C84.5557 103.335 83.9668 102.872 83.5508 102.286C83.1406 101.7 82.9355 101.035 82.9355 100.291H84.6318C84.6318 101.064 84.916 101.677 85.4844 102.128C86.0586 102.573 86.8232 102.796 87.7783 102.796C88.6689 102.796 89.3516 102.614 89.8262 102.251C90.3008 101.888 90.5381 101.393 90.5381 100.766C90.5381 100.139 90.3184 99.6553 89.8789 99.3154C89.4395 98.9697 88.6426 98.6299 87.4883 98.2959ZM98.0967 104.176C96.8076 104.176 95.7588 103.754 94.9502 102.91C94.1416 102.061 93.7373 100.927 93.7373 99.5088V99.21C93.7373 98.2666 93.916 97.4258 94.2734 96.6875C94.6367 95.9434 95.1406 95.3633 95.7852 94.9473C96.4355 94.5254 97.1387 94.3145 97.8945 94.3145C99.1309 94.3145 100.092 94.7217 100.777 95.5361C101.463 96.3506 101.806 97.5166 101.806 99.0342V99.7109H95.3633C95.3867 100.648 95.6592 101.407 96.1807 101.987C96.708 102.562 97.376 102.849 98.1846 102.849C98.7588 102.849 99.2451 102.731 99.6436 102.497C100.042 102.263 100.391 101.952 100.689 101.565L101.683 102.339C100.886 103.563 99.6904 104.176 98.0967 104.176ZM97.8945 95.6504C97.2383 95.6504 96.6875 95.8906 96.2422 96.3711C95.7969 96.8457 95.5215 97.5137 95.416 98.375H100.18V98.252C100.133 97.4258 99.9102 96.7871 99.5117 96.3359C99.1133 95.8789 98.5742 95.6504 97.8945 95.6504ZM105.233 94.4902L105.286 95.6855C106.013 94.7715 106.962 94.3145 108.134 94.3145C110.144 94.3145 111.157 95.4482 111.175 97.7158V104H109.549V97.707C109.543 97.0215 109.385 96.5146 109.074 96.1865C108.77 95.8584 108.292 95.6943 107.642 95.6943C107.114 95.6943 106.651 95.835 106.253 96.1162C105.854 96.3975 105.544 96.7666 105.321 97.2236V104H103.695V94.4902H105.233ZM117.573 104.176C116.284 104.176 115.235 103.754 114.427 102.91C113.618 102.061 113.214 100.927 113.214 99.5088V99.21C113.214 98.2666 113.393 97.4258 113.75 96.6875C114.113 95.9434 114.617 95.3633 115.262 94.9473C115.912 94.5254 116.615 94.3145 117.371 94.3145C118.607 94.3145 119.568 94.7217 120.254 95.5361C120.939 96.3506 121.282 97.5166 121.282 99.0342V99.7109H114.84C114.863 100.648 115.136 101.407 115.657 101.987C116.185 102.562 116.853 102.849 117.661 102.849C118.235 102.849 118.722 102.731 119.12 102.497C119.519 102.263 119.867 101.952 120.166 101.565L121.159 102.339C120.362 103.563 119.167 104.176 117.573 104.176ZM117.371 95.6504C116.715 95.6504 116.164 95.8906 115.719 96.3711C115.273 96.8457 114.998 97.5137 114.893 98.375H119.656V98.252C119.609 97.4258 119.387 96.7871 118.988 96.3359C118.59 95.8789 118.051 95.6504 117.371 95.6504ZM126.986 102.849C127.566 102.849 128.073 102.673 128.507 102.321C128.94 101.97 129.181 101.53 129.228 101.003H130.766C130.736 101.548 130.549 102.066 130.203 102.559C129.857 103.051 129.395 103.443 128.814 103.736C128.24 104.029 127.631 104.176 126.986 104.176C125.691 104.176 124.66 103.745 123.893 102.884C123.131 102.017 122.75 100.833 122.75 99.333V99.0605C122.75 98.1348 122.92 97.3115 123.26 96.5908C123.6 95.8701 124.086 95.3105 124.719 94.9121C125.357 94.5137 126.11 94.3145 126.978 94.3145C128.044 94.3145 128.929 94.6338 129.632 95.2725C130.341 95.9111 130.719 96.7402 130.766 97.7598H129.228C129.181 97.1445 128.946 96.6406 128.524 96.248C128.108 95.8496 127.593 95.6504 126.978 95.6504C126.151 95.6504 125.51 95.9492 125.053 96.5469C124.602 97.1387 124.376 97.9971 124.376 99.1221V99.4297C124.376 100.525 124.602 101.369 125.053 101.961C125.504 102.553 126.148 102.849 126.986 102.849ZM138.465 104C138.371 103.812 138.295 103.479 138.236 102.998C137.48 103.783 136.578 104.176 135.529 104.176C134.592 104.176 133.821 103.912 133.218 103.385C132.62 102.852 132.321 102.178 132.321 101.363C132.321 100.373 132.696 99.6055 133.446 99.0605C134.202 98.5098 135.263 98.2344 136.628 98.2344H138.21V97.4873C138.21 96.9189 138.04 96.4678 137.7 96.1338C137.36 95.7939 136.859 95.624 136.197 95.624C135.617 95.624 135.131 95.7705 134.738 96.0635C134.346 96.3564 134.149 96.7109 134.149 97.127H132.515C132.515 96.6523 132.682 96.1953 133.016 95.7559C133.355 95.3105 133.812 94.959 134.387 94.7012C134.967 94.4434 135.603 94.3145 136.294 94.3145C137.39 94.3145 138.248 94.5898 138.869 95.1406C139.49 95.6855 139.812 96.4385 139.836 97.3994V101.776C139.836 102.649 139.947 103.344 140.17 103.859V104H138.465ZM135.767 102.761C136.276 102.761 136.76 102.629 137.217 102.365C137.674 102.102 138.005 101.759 138.21 101.337V99.3857H136.936C134.943 99.3857 133.947 99.9688 133.947 101.135C133.947 101.645 134.117 102.043 134.457 102.33C134.797 102.617 135.233 102.761 135.767 102.761ZM144.151 104H142.525V90.5H144.151V104ZM40.8887 139.136H44.457V140.674H40.8887V144.717H39.2539V140.674H35.6855V139.136H39.2539V135.4H40.8887V139.136ZM57.6055 141.702H59.3809V143.029H57.6055V146H55.9707V143.029H50.1436V142.071L55.874 133.203H57.6055V141.702ZM51.9893 141.702H55.9707V135.427L55.7773 135.778L51.9893 141.702ZM66.1924 146H64.5576V135.163L61.2793 136.367V134.891L65.9375 133.142H66.1924V146ZM78.7168 136.543C78.7168 137.182 78.5469 137.75 78.207 138.248C77.873 138.746 77.4189 139.136 76.8447 139.417C77.5127 139.704 78.04 140.123 78.4268 140.674C78.8193 141.225 79.0156 141.849 79.0156 142.546C79.0156 143.653 78.6406 144.535 77.8906 145.191C77.1465 145.848 76.165 146.176 74.9463 146.176C73.7158 146.176 72.7285 145.848 71.9844 145.191C71.2461 144.529 70.877 143.647 70.877 142.546C70.877 141.854 71.0645 141.23 71.4395 140.674C71.8203 140.117 72.3447 139.695 73.0127 139.408C72.4443 139.127 71.9961 138.737 71.668 138.239C71.3398 137.741 71.1758 137.176 71.1758 136.543C71.1758 135.465 71.5215 134.609 72.2129 133.977C72.9043 133.344 73.8154 133.027 74.9463 133.027C76.0713 133.027 76.9795 133.344 77.6709 133.977C78.3682 134.609 78.7168 135.465 78.7168 136.543ZM77.3896 142.511C77.3896 141.796 77.1611 141.213 76.7041 140.762C76.2529 140.311 75.6611 140.085 74.9287 140.085C74.1963 140.085 73.6074 140.308 73.1621 140.753C72.7227 141.198 72.5029 141.784 72.5029 142.511C72.5029 143.237 72.7168 143.809 73.1445 144.225C73.5781 144.641 74.1787 144.849 74.9463 144.849C75.708 144.849 76.3057 144.641 76.7393 144.225C77.1729 143.803 77.3896 143.231 77.3896 142.511ZM74.9463 134.363C74.3076 134.363 73.7891 134.562 73.3906 134.961C72.998 135.354 72.8018 135.89 72.8018 136.569C72.8018 137.22 72.9951 137.747 73.3818 138.151C73.7744 138.55 74.2959 138.749 74.9463 138.749C75.5967 138.749 76.1152 138.55 76.502 138.151C76.8945 137.747 77.0908 137.22 77.0908 136.569C77.0908 135.919 76.8887 135.389 76.4844 134.979C76.0801 134.568 75.5674 134.363 74.9463 134.363ZM86.2754 139.584L86.9258 133.203H93.4824V134.706H88.3057L87.9189 138.195C88.5459 137.826 89.2578 137.642 90.0547 137.642C91.2207 137.642 92.1465 138.028 92.832 138.802C93.5176 139.569 93.8604 140.609 93.8604 141.922C93.8604 143.24 93.5029 144.28 92.7881 145.042C92.0791 145.798 91.0859 146.176 89.8086 146.176C88.6777 146.176 87.7549 145.862 87.04 145.235C86.3252 144.608 85.918 143.741 85.8184 142.634H87.3564C87.4561 143.366 87.7168 143.92 88.1387 144.295C88.5605 144.664 89.1172 144.849 89.8086 144.849C90.5645 144.849 91.1562 144.591 91.584 144.075C92.0176 143.56 92.2344 142.848 92.2344 141.939C92.2344 141.084 92 140.398 91.5312 139.883C91.0684 139.361 90.4502 139.101 89.6768 139.101C88.9678 139.101 88.4111 139.256 88.0068 139.566L87.5762 139.918L86.2754 139.584ZM102.017 133.194V134.574H101.718C100.452 134.598 99.4443 134.973 98.6943 135.699C97.9443 136.426 97.5107 137.448 97.3936 138.767C98.0674 137.993 98.9873 137.606 100.153 137.606C101.267 137.606 102.154 137.999 102.816 138.784C103.484 139.569 103.818 140.583 103.818 141.825C103.818 143.144 103.458 144.198 102.737 144.989C102.022 145.78 101.062 146.176 99.8545 146.176C98.6299 146.176 97.6367 145.707 96.875 144.77C96.1133 143.826 95.7324 142.613 95.7324 141.131V140.507C95.7324 138.151 96.2334 136.353 97.2354 135.11C98.2432 133.862 99.7402 133.224 101.727 133.194H102.017ZM99.8809 138.96C99.3242 138.96 98.8115 139.127 98.3428 139.461C97.874 139.795 97.5488 140.214 97.3672 140.718V141.315C97.3672 142.37 97.6045 143.22 98.0791 143.864C98.5537 144.509 99.1455 144.831 99.8545 144.831C100.587 144.831 101.161 144.562 101.577 144.022C101.999 143.483 102.21 142.777 102.21 141.904C102.21 141.025 101.996 140.316 101.568 139.777C101.146 139.232 100.584 138.96 99.8809 138.96ZM112.124 133.194V134.574H111.825C110.56 134.598 109.552 134.973 108.802 135.699C108.052 136.426 107.618 137.448 107.501 138.767C108.175 137.993 109.095 137.606 110.261 137.606C111.374 137.606 112.262 137.999 112.924 138.784C113.592 139.569 113.926 140.583 113.926 141.825C113.926 143.144 113.565 144.198 112.845 144.989C112.13 145.78 111.169 146.176 109.962 146.176C108.737 146.176 107.744 145.707 106.982 144.77C106.221 143.826 105.84 142.613 105.84 141.131V140.507C105.84 138.151 106.341 136.353 107.343 135.11C108.351 133.862 109.848 133.224 111.834 133.194H112.124ZM109.988 138.96C109.432 138.96 108.919 139.127 108.45 139.461C107.981 139.795 107.656 140.214 107.475 140.718V141.315C107.475 142.37 107.712 143.22 108.187 143.864C108.661 144.509 109.253 144.831 109.962 144.831C110.694 144.831 111.269 144.562 111.685 144.022C112.106 143.483 112.317 142.777 112.317 141.904C112.317 141.025 112.104 140.316 111.676 139.777C111.254 139.232 110.691 138.96 109.988 138.96ZM128.577 134.117L123.277 146H121.572L126.854 134.539H119.929V133.203H128.577V134.117ZM138.685 134.117L133.385 146H131.68L136.962 134.539H130.036V133.203H138.685V134.117ZM148.792 134.117L143.492 146H141.787L147.069 134.539H140.144V133.203H148.792V134.117ZM37.7598 178.49L37.8037 179.545C38.501 178.725 39.4414 178.314 40.625 178.314C41.9551 178.314 42.8604 178.824 43.3408 179.844C43.6572 179.387 44.0674 179.018 44.5713 178.736C45.0811 178.455 45.6816 178.314 46.373 178.314C48.459 178.314 49.5195 179.419 49.5547 181.628V188H47.9287V181.725C47.9287 181.045 47.7734 180.538 47.4629 180.204C47.1523 179.864 46.6309 179.694 45.8984 179.694C45.2949 179.694 44.7939 179.876 44.3955 180.239C43.9971 180.597 43.7656 181.08 43.7012 181.689V188H42.0664V181.769C42.0664 180.386 41.3896 179.694 40.0361 179.694C38.9697 179.694 38.2402 180.148 37.8477 181.057V188H36.2217V178.49H37.7598ZM53.7822 188H52.1562V178.49H53.7822V188ZM52.0244 175.968C52.0244 175.704 52.1035 175.481 52.2617 175.3C52.4258 175.118 52.666 175.027 52.9824 175.027C53.2988 175.027 53.5391 175.118 53.7031 175.3C53.8672 175.481 53.9492 175.704 53.9492 175.968C53.9492 176.231 53.8672 176.451 53.7031 176.627C53.5391 176.803 53.2988 176.891 52.9824 176.891C52.666 176.891 52.4258 176.803 52.2617 176.627C52.1035 176.451 52.0244 176.231 52.0244 175.968ZM58.1592 188H56.5332V174.5H58.1592V188ZM62.5361 188H60.9102V174.5H62.5361V188ZM66.9131 188H65.2871V178.49H66.9131V188ZM65.1553 175.968C65.1553 175.704 65.2344 175.481 65.3926 175.3C65.5566 175.118 65.7969 175.027 66.1133 175.027C66.4297 175.027 66.6699 175.118 66.834 175.3C66.998 175.481 67.0801 175.704 67.0801 175.968C67.0801 176.231 66.998 176.451 66.834 176.627C66.6699 176.803 66.4297 176.891 66.1133 176.891C65.7969 176.891 65.5566 176.803 65.3926 176.627C65.2344 176.451 65.1553 176.231 65.1553 175.968ZM73.4697 188.176C72.1807 188.176 71.1318 187.754 70.3232 186.91C69.5146 186.061 69.1104 184.927 69.1104 183.509V183.21C69.1104 182.267 69.2891 181.426 69.6465 180.688C70.0098 179.943 70.5137 179.363 71.1582 178.947C71.8086 178.525 72.5117 178.314 73.2676 178.314C74.5039 178.314 75.4648 178.722 76.1504 179.536C76.8359 180.351 77.1787 181.517 77.1787 183.034V183.711H70.7363C70.7598 184.648 71.0322 185.407 71.5537 185.987C72.0811 186.562 72.749 186.849 73.5576 186.849C74.1318 186.849 74.6182 186.731 75.0166 186.497C75.415 186.263 75.7637 185.952 76.0625 185.565L77.0557 186.339C76.2588 187.563 75.0635 188.176 73.4697 188.176ZM73.2676 179.65C72.6113 179.65 72.0605 179.891 71.6152 180.371C71.1699 180.846 70.8945 181.514 70.7891 182.375H75.5527V182.252C75.5059 181.426 75.2832 180.787 74.8848 180.336C74.4863 179.879 73.9473 179.65 73.2676 179.65ZM93.1133 183.588C93.043 185.006 92.6914 186.125 92.0586 186.945C91.4258 187.766 90.5791 188.176 89.5186 188.176C88.4229 188.176 87.7197 187.684 87.4092 186.699C87.0928 187.197 86.7295 187.569 86.3193 187.815C85.915 188.056 85.4961 188.176 85.0625 188.176C84.2305 188.176 83.6006 187.836 83.1729 187.156C82.7451 186.477 82.5869 185.536 82.6982 184.335C82.7861 183.368 83.0059 182.507 83.3574 181.751C83.7148 180.989 84.1719 180.392 84.7285 179.958C85.291 179.524 85.8799 179.308 86.4951 179.308C86.9697 179.308 87.3945 179.372 87.7695 179.501C88.1445 179.624 88.5664 179.87 89.0352 180.239L88.5781 185.108C88.4668 186.462 88.8418 187.139 89.7031 187.139C90.3652 187.139 90.9014 186.811 91.3115 186.154C91.7217 185.498 91.9443 184.643 91.9795 183.588C92.0908 181.309 91.666 179.571 90.7051 178.376C89.75 177.181 88.2939 176.583 86.3369 176.583C85.1592 176.583 84.1133 176.876 83.1992 177.462C82.2852 178.042 81.5645 178.883 81.0371 179.984C80.5098 181.086 80.2139 182.357 80.1494 183.799C80.0791 185.252 80.2549 186.515 80.6768 187.587C81.0986 188.653 81.7402 189.468 82.6016 190.03C83.4688 190.599 84.5146 190.883 85.7393 190.883C86.2666 190.883 86.7939 190.818 87.3213 190.689C87.8545 190.561 88.2969 190.394 88.6484 190.188L88.9736 191.199C88.6104 191.428 88.127 191.615 87.5234 191.762C86.9258 191.908 86.3193 191.981 85.7041 191.981C84.2393 191.981 82.9795 191.65 81.9248 190.988C80.8701 190.332 80.0791 189.383 79.5518 188.141C79.0303 186.904 78.8047 185.457 78.875 183.799C78.9453 182.188 79.3057 180.74 79.9561 179.457C80.6064 178.168 81.4883 177.175 82.6016 176.478C83.7148 175.774 84.9717 175.423 86.3721 175.423C87.8311 175.423 89.082 175.751 90.125 176.407C91.168 177.063 91.9443 178.01 92.4541 179.246C92.9639 180.482 93.1836 181.93 93.1133 183.588ZM84.0957 184.335C84.0137 185.167 84.0898 185.806 84.3242 186.251C84.5645 186.696 84.9424 186.919 85.458 186.919C85.8096 186.919 86.1465 186.77 86.4688 186.471C86.7969 186.172 87.0664 185.744 87.2773 185.188L87.2861 185.108L87.6904 180.688C87.3623 180.518 87.0107 180.433 86.6357 180.433C85.9502 180.433 85.3818 180.781 84.9307 181.479C84.4854 182.176 84.207 183.128 84.0957 184.335ZM99.1865 188.176C97.8975 188.176 96.8486 187.754 96.04 186.91C95.2314 186.061 94.8271 184.927 94.8271 183.509V183.21C94.8271 182.267 95.0059 181.426 95.3633 180.688C95.7266 179.943 96.2305 179.363 96.875 178.947C97.5254 178.525 98.2285 178.314 98.9844 178.314C100.221 178.314 101.182 178.722 101.867 179.536C102.553 180.351 102.896 181.517 102.896 183.034V183.711H96.4531C96.4766 184.648 96.749 185.407 97.2705 185.987C97.7979 186.562 98.4658 186.849 99.2744 186.849C99.8486 186.849 100.335 186.731 100.733 186.497C101.132 186.263 101.48 185.952 101.779 185.565L102.772 186.339C101.976 187.563 100.78 188.176 99.1865 188.176ZM98.9844 179.65C98.3281 179.65 97.7773 179.891 97.332 180.371C96.8867 180.846 96.6113 181.514 96.5059 182.375H101.27V182.252C101.223 181.426 101 180.787 100.602 180.336C100.203 179.879 99.6641 179.65 98.9844 179.65ZM106.314 178.49L106.358 179.545C107.056 178.725 107.996 178.314 109.18 178.314C110.51 178.314 111.415 178.824 111.896 179.844C112.212 179.387 112.622 179.018 113.126 178.736C113.636 178.455 114.236 178.314 114.928 178.314C117.014 178.314 118.074 179.419 118.109 181.628V188H116.483V181.725C116.483 181.045 116.328 180.538 116.018 180.204C115.707 179.864 115.186 179.694 114.453 179.694C113.85 179.694 113.349 179.876 112.95 180.239C112.552 180.597 112.32 181.08 112.256 181.689V188H110.621V181.769C110.621 180.386 109.944 179.694 108.591 179.694C107.524 179.694 106.795 180.148 106.402 181.057V188H104.776V178.49H106.314ZM126.441 188C126.348 187.812 126.271 187.479 126.213 186.998C125.457 187.783 124.555 188.176 123.506 188.176C122.568 188.176 121.798 187.912 121.194 187.385C120.597 186.852 120.298 186.178 120.298 185.363C120.298 184.373 120.673 183.605 121.423 183.061C122.179 182.51 123.239 182.234 124.604 182.234H126.187V181.487C126.187 180.919 126.017 180.468 125.677 180.134C125.337 179.794 124.836 179.624 124.174 179.624C123.594 179.624 123.107 179.771 122.715 180.063C122.322 180.356 122.126 180.711 122.126 181.127H120.491C120.491 180.652 120.658 180.195 120.992 179.756C121.332 179.311 121.789 178.959 122.363 178.701C122.943 178.443 123.579 178.314 124.271 178.314C125.366 178.314 126.225 178.59 126.846 179.141C127.467 179.686 127.789 180.438 127.812 181.399V185.776C127.812 186.649 127.924 187.344 128.146 187.859V188H126.441ZM123.743 186.761C124.253 186.761 124.736 186.629 125.193 186.365C125.65 186.102 125.981 185.759 126.187 185.337V183.386H124.912C122.92 183.386 121.924 183.969 121.924 185.135C121.924 185.645 122.094 186.043 122.434 186.33C122.773 186.617 123.21 186.761 123.743 186.761ZM132.128 188H130.502V178.49H132.128V188ZM130.37 175.968C130.37 175.704 130.449 175.481 130.607 175.3C130.771 175.118 131.012 175.027 131.328 175.027C131.645 175.027 131.885 175.118 132.049 175.3C132.213 175.481 132.295 175.704 132.295 175.968C132.295 176.231 132.213 176.451 132.049 176.627C131.885 176.803 131.645 176.891 131.328 176.891C131.012 176.891 130.771 176.803 130.607 176.627C130.449 176.451 130.37 176.231 130.37 175.968ZM136.505 188H134.879V174.5H136.505V188ZM139.15 187.147C139.15 186.866 139.232 186.632 139.396 186.444C139.566 186.257 139.818 186.163 140.152 186.163C140.486 186.163 140.738 186.257 140.908 186.444C141.084 186.632 141.172 186.866 141.172 187.147C141.172 187.417 141.084 187.643 140.908 187.824C140.738 188.006 140.486 188.097 140.152 188.097C139.818 188.097 139.566 188.006 139.396 187.824C139.232 187.643 139.15 187.417 139.15 187.147ZM147.676 186.849C148.256 186.849 148.763 186.673 149.196 186.321C149.63 185.97 149.87 185.53 149.917 185.003H151.455C151.426 185.548 151.238 186.066 150.893 186.559C150.547 187.051 150.084 187.443 149.504 187.736C148.93 188.029 148.32 188.176 147.676 188.176C146.381 188.176 145.35 187.745 144.582 186.884C143.82 186.017 143.439 184.833 143.439 183.333V183.061C143.439 182.135 143.609 181.312 143.949 180.591C144.289 179.87 144.775 179.311 145.408 178.912C146.047 178.514 146.8 178.314 147.667 178.314C148.733 178.314 149.618 178.634 150.321 179.272C151.03 179.911 151.408 180.74 151.455 181.76H149.917C149.87 181.145 149.636 180.641 149.214 180.248C148.798 179.85 148.282 179.65 147.667 179.65C146.841 179.65 146.199 179.949 145.742 180.547C145.291 181.139 145.065 181.997 145.065 183.122V183.43C145.065 184.525 145.291 185.369 145.742 185.961C146.193 186.553 146.838 186.849 147.676 186.849ZM152.853 183.157C152.853 182.226 153.034 181.388 153.397 180.644C153.767 179.899 154.276 179.325 154.927 178.921C155.583 178.517 156.33 178.314 157.168 178.314C158.463 178.314 159.509 178.763 160.306 179.659C161.108 180.556 161.51 181.748 161.51 183.236V183.351C161.51 184.276 161.331 185.108 160.974 185.847C160.622 186.579 160.115 187.15 159.453 187.561C158.797 187.971 158.041 188.176 157.186 188.176C155.896 188.176 154.851 187.728 154.048 186.831C153.251 185.935 152.853 184.748 152.853 183.271V183.157ZM154.487 183.351C154.487 184.405 154.73 185.252 155.217 185.891C155.709 186.529 156.365 186.849 157.186 186.849C158.012 186.849 158.668 186.526 159.154 185.882C159.641 185.231 159.884 184.323 159.884 183.157C159.884 182.114 159.635 181.271 159.137 180.626C158.645 179.976 157.988 179.65 157.168 179.65C156.365 179.65 155.718 179.97 155.226 180.608C154.733 181.247 154.487 182.161 154.487 183.351ZM165.078 178.49L165.122 179.545C165.819 178.725 166.76 178.314 167.943 178.314C169.273 178.314 170.179 178.824 170.659 179.844C170.976 179.387 171.386 179.018 171.89 178.736C172.399 178.455 173 178.314 173.691 178.314C175.777 178.314 176.838 179.419 176.873 181.628V188H175.247V181.725C175.247 181.045 175.092 180.538 174.781 180.204C174.471 179.864 173.949 179.694 173.217 179.694C172.613 179.694 172.112 179.876 171.714 180.239C171.315 180.597 171.084 181.08 171.02 181.689V188H169.385V181.769C169.385 180.386 168.708 179.694 167.354 179.694C166.288 179.694 165.559 180.148 165.166 181.057V188H163.54V178.49H165.078Z" fill="black"/>
<rect x="62" y="259" width="134" height="37" rx="5" fill="#009BA5"/>
<path d="M122.364 279.454H117.302V282.882H123.243V285H114.665V272.203H123.226V274.339H117.302V277.389H122.364V279.454ZM124.052 280.175C124.052 278.692 124.383 277.512 125.045 276.633C125.713 275.754 126.624 275.314 127.778 275.314C128.704 275.314 129.469 275.66 130.072 276.352V271.5H132.621V285H130.327L130.204 283.989C129.571 284.78 128.757 285.176 127.761 285.176C126.642 285.176 125.742 284.736 125.062 283.857C124.389 282.973 124.052 281.745 124.052 280.175ZM126.592 280.359C126.592 281.25 126.747 281.933 127.058 282.407C127.368 282.882 127.819 283.119 128.411 283.119C129.196 283.119 129.75 282.788 130.072 282.126V278.373C129.756 277.711 129.208 277.38 128.429 277.38C127.204 277.38 126.592 278.373 126.592 280.359ZM137.27 285H134.722V275.49H137.27V285ZM134.572 273.029C134.572 272.648 134.698 272.335 134.95 272.089C135.208 271.843 135.557 271.72 135.996 271.72C136.43 271.72 136.775 271.843 137.033 272.089C137.291 272.335 137.42 272.648 137.42 273.029C137.42 273.416 137.288 273.732 137.024 273.979C136.767 274.225 136.424 274.348 135.996 274.348C135.568 274.348 135.223 274.225 134.959 273.979C134.701 273.732 134.572 273.416 134.572 273.029ZM142.412 273.152V275.49H144.038V277.354H142.412V282.1C142.412 282.451 142.479 282.703 142.614 282.855C142.749 283.008 143.007 283.084 143.388 283.084C143.669 283.084 143.918 283.063 144.135 283.022V284.947C143.637 285.1 143.124 285.176 142.597 285.176C140.815 285.176 139.907 284.276 139.872 282.478V277.354H138.483V275.49H139.872V273.152H142.412Z" fill="white"/>
<defs>
<filter id="filter0_d" x="0" y="0" width="262" height="353" filterUnits="userSpaceOnUse" color-interpolation-filters="sRGB">
<feFlood flood-opacity="0" result="BackgroundImageFix"/>
<feColorMatrix in="SourceAlpha" type="matrix" values="0 0 0 0 0 0 0 0 0 0 0 0 0 0 0 0 0 0 127 0"/>
<feOffset dx="2" dy="6"/>
<feGaussianBlur stdDeviation="3"/>
<feColorMatrix type="matrix" values="0 0 0 0 0 0 0 0 0 0 0 0 0 0 0 0 0 0 0.11 0"/>
<feBlend mode="normal" in2="BackgroundImageFix" result="effect1_dropShadow"/>
<feBlend mode="normal" in="SourceGraphic" in2="effect1_dropShadow" result="shape"/>
</filter>
</defs>
</svg>
